<svg width="97" height="97" viewBox="0 0 97 97" fill="none" xmlns="http://www.w3.org/2000/svg">
<g id="a" clip-path="url(#clip0_2244_8725)">
<g id="Clip path group">
<mask id="mask0_2244_8725" style="mask-type:luminance" maskUnits="userSpaceOnUse" x="0" y="0" width="97" height="97">
<g id="b">
<path id="Vector" d="M96.3999 0.600098H0.399902V96.6001H96.3999V0.600098Z" fill="white"/>
</g>
</mask>
<g mask="url(#mask0_2244_8725)">
<g id="Group">
<g id="c">
<path id="Vector_2" d="M60.935 46.0064V52.2624H68.3886V65.7056C65.8598 67.8352 63.3306 69.2992 60.5354 70.2312C59.7366 70.4976 58.805 70.7636 57.8734 70.8968V25.7748C58.2726 25.908 58.805 25.908 59.2046 26.0412C61.8666 26.5736 64.3954 27.5052 66.5254 28.7032L66.6586 37.488H73.9794C73.9794 35.3584 74.1126 33.362 74.1126 31.3652V25.3756C70.6518 22.8468 67.0582 21.1164 63.3314 20.0516C61.601 19.5192 59.7378 19.2528 57.8742 18.9868V14.062H51.6182V18.5876H51.219C48.6902 18.5876 46.2942 18.7208 44.0314 19.12V14.062H37.7754V20.584C37.509 20.7172 37.243 20.7172 36.9766 20.8504C32.7174 22.4476 29.2566 24.5772 26.3286 27.2392C23.4002 29.9012 21.1378 33.0956 19.6734 36.8224C18.2094 40.5492 17.4106 44.5424 17.4106 48.8016C17.4106 52.6616 18.0762 56.5216 19.407 59.9824C20.7382 63.576 22.8678 66.6376 25.663 69.4328C28.4582 72.228 32.0518 74.3576 36.311 75.9548C36.8434 76.088 37.3758 76.2212 37.9082 76.4872V82.7432H44.1642V77.9516C46.427 78.218 48.8226 78.484 51.3518 78.484H51.6182V82.7432H57.8742V77.9516C60.403 77.5524 62.6658 76.8868 64.9286 76.088C68.9218 74.4908 72.5154 71.962 75.5766 68.6344V46.0068H60.9354L60.935 46.0064ZM51.2186 25.2424H51.6178V46.1396H44.1642V25.908C46.2938 25.5088 48.6898 25.2424 51.2186 25.2424ZM31.6526 64.6408C29.523 62.5112 27.9258 60.1152 26.861 57.32C25.7962 54.5248 25.2638 51.7296 25.2638 48.8016C25.2638 45.6072 25.7962 42.6788 26.9942 39.7508C28.059 36.9556 29.7894 34.4268 31.919 32.164C33.5162 30.5668 35.5126 29.1028 37.7754 28.038V68.7672C35.3794 67.7024 33.383 66.238 31.6526 64.6408ZM51.4846 71.562C48.8226 71.562 46.4266 71.2956 44.1638 70.8964V52.262H51.6174V71.562H51.4846Z" fill="url(#paint0_linear_2244_8725)"/>
</g>
</g>
</g>
</g>
</g>
<defs>
<linearGradient id="paint0_linear_2244_8725" x1="17.4106" y1="48.402" x2="75.5762" y2="48.402" gradientUnits="userSpaceOnUse">
<stop stop-color="#E84341"/>
<stop offset="1" stop-color="#E72D40"/>
</linearGradient>
<clipPath id="clip0_2244_8725">
<rect width="96" height="96" fill="white" transform="translate(0.399902 0.600098)"/>
</clipPath>
</defs>
</svg>
